# Blender 5.0.1
# www.blender.org
mtllib Payphone.mtl
o Body
v -0.366107 1.971743 0.400000
v -0.366107 0.000307 0.400000
v -0.400000 1.830132 -0.314770
v 0.000000 0.000307 0.400000
v 0.000000 1.534588 -0.400000
v 0.000000 0.000307 -0.400000
v 0.000000 1.971743 0.400000
v -0.366107 1.087688 0.400000
v -0.400000 1.135169 -0.314770
v -0.366107 0.542036 0.400000
v -0.400000 0.585647 -0.314770
v 0.000000 0.864954 -0.400000
v -0.400000 0.585647 0.314770
v 0.000000 2.000000 0.400000
v -0.400000 1.830132 0.314770
v -0.400000 1.135169 0.314770
v -0.400000 2.000000 0.400000
v -0.134613 1.534588 -0.400000
v -0.400000 1.044078 0.314770
v -0.400000 1.044078 -0.314770
v -0.400000 1.087688 0.400000
v -0.134613 1.087688 -0.400000
v -0.400000 0.542036 0.400000
v -0.400000 0.000307 0.400000
v -0.134613 0.864954 -0.400000
v -0.400000 0.000000 -0.400000
v -0.400000 2.000000 -0.400000
v 0.000000 2.000000 -0.400000
v -0.400000 1.087688 -0.400000
v -0.400000 0.542036 -0.400000
v 0.000000 0.542036 -0.400000
v 0.000000 1.534588 -0.279493
v 0.000000 1.087688 -0.279493
v -0.134613 1.087688 -0.279493
v 0.000000 0.864954 -0.279493
v -0.134613 1.534588 -0.279493
v -0.134613 0.864954 -0.279493
v 0.366107 1.971743 0.400000
v 0.366107 0.000307 0.400000
v 0.400000 1.830132 -0.314770
v 0.366107 1.087688 0.400000
v 0.400000 1.135169 -0.314770
v 0.366107 0.542036 0.400000
v 0.400000 0.585647 -0.314770
v 0.400000 0.585647 0.314770
v 0.400000 1.830132 0.314770
v 0.400000 1.135169 0.314770
v 0.400000 2.000000 0.400000
v 0.134613 1.534588 -0.400000
v 0.400000 1.044078 0.314770
v 0.400000 1.044078 -0.314770
v 0.400000 1.087688 0.400000
v 0.134613 1.087688 -0.400000
v 0.400000 0.542036 0.400000
v 0.400000 0.000307 0.400000
v 0.134613 0.864954 -0.400000
v 0.400000 0.000000 -0.400000
v 0.400000 2.000000 -0.400000
v 0.400000 1.087688 -0.400000
v 0.400000 0.542036 -0.400000
v 0.134613 1.087688 -0.279493
v 0.134613 1.534588 -0.279493
v 0.134613 0.864954 -0.279493
v -0.385027 1.087688 0.400000
vn 0.0004 -1.0000 0.0002
vn -0.0000 -1.0000 -0.0000
vn -0.0000 1.0000 -0.0000
vn -0.0000 -0.0000 -1.0000
vn -0.0000 -0.0000 1.0000
vn -1.0000 -0.0000 -0.0000
vn -0.0004 -1.0000 0.0002
vn 1.0000 -0.0000 -0.0000
vt 0.651662 0.052085
vt 0.696981 0.052085
vt 0.701177 0.052085
vt 0.701177 0.151115
vt 0.651662 0.151115
vt 0.836744 0.038595
vt 0.836744 0.074747
vt 0.877128 0.074747
vt 0.877128 0.038595
vt 0.564632 0.300264
vt 0.444631 0.300264
vt 0.444631 0.060263
vt 0.564632 0.060263
vt 0.270617 0.375289
vt 0.270617 0.537901
vt 0.155568 0.537901
vt 0.155568 0.375381
vt 0.738505 0.368307
vt 0.738505 0.530827
vt 0.728337 0.530827
vt 0.728337 0.368307
vt 0.738505 0.959742
vt 0.848338 0.959742
vt 0.848338 0.968219
vt 0.728337 0.968219
vt 0.738505 0.694523
vt 0.728337 0.694523
vt 0.732829 0.694523
vt 0.410863 0.923163
vt 0.599726 0.923163
vt 0.625295 0.971836
vt 0.390246 0.971836
vt 0.599726 0.712386
vt 0.625295 0.698141
vt 0.410863 0.712386
vt 0.390246 0.698141
vt 0.410863 0.685058
vt 0.599726 0.685058
vt 0.599726 0.547528
vt 0.625295 0.534445
vt 0.410863 0.547528
vt 0.390246 0.534445
vt 0.390246 0.371833
vt 0.625295 0.371925
vt 0.155568 0.839311
vt 0.195953 0.839311
vt 0.270617 0.975292
vt 0.155568 0.975292
vt 0.195953 0.701597
vt 0.270617 0.701597
vt 0.195953 0.631256
vt 0.155568 0.631256
vt 0.895560 0.164643
vt 0.935944 0.164643
vt 0.935944 0.301019
vt 0.895560 0.301019
vt 0.895560 0.130904
vt 0.935944 0.130904
vt 0.737685 0.168729
vt 0.773837 0.168729
vt 0.773837 0.297293
vt 0.737685 0.297293
vt 0.737685 0.134990
vt 0.773837 0.134990
vt 0.602147 0.151115
vt 0.602147 0.052085
vt 0.606343 0.052085
vt 0.796360 0.038595
vt 0.796360 0.074747
vt 0.324630 0.300264
vt 0.324630 0.060263
vt 0.035568 0.375289
vt 0.035568 0.537901
vt 0.958171 0.368307
vt 0.968339 0.368307
vt 0.968339 0.530827
vt 0.958171 0.530827
vt 0.958171 0.959742
vt 0.968339 0.968219
vt 0.958171 0.694523
vt 0.968339 0.694523
vt 0.385294 0.971836
vt 0.385294 0.698141
vt 0.385294 0.534445
vt 0.385294 0.371833
vt 0.035568 0.975292
vt 0.115184 0.839311
vt 0.035568 0.701597
vt 0.115184 0.701597
vt 0.115184 0.631256
vt 0.976328 0.164643
vt 0.976328 0.301019
vt 0.976328 0.130904
s 0
usemtl Body
f 4/1/1 2/2/1 24/3/1 26/4/1 6/5/1
f 12/6/2 35/7/2 37/8/2 25/9/2
f 17/10/3 14/11/3 28/12/3 27/13/3
f 18/9/3 36/8/3 32/7/3 5/6/3
f 26/14/4 30/15/4 31/16/4 6/17/4
f 2/18/5 10/19/5 23/20/5 24/21/5
f 1/22/5 7/23/5 14/24/5 17/25/5
f 8/26/5 1/22/5 17/25/5 21/27/5 64/28/5
f 10/19/5 8/26/5 64/28/5 21/27/5 23/20/5
f 3/29/6 15/30/6 17/31/6 27/32/6
f 15/30/6 16/33/6 21/34/6 17/31/6
f 9/35/6 3/29/6 27/32/6 29/36/6
f 16/33/6 9/35/6 29/36/6 21/34/6
f 20/37/6 19/38/6 21/34/6 29/36/6
f 19/38/6 13/39/6 23/40/6 21/34/6
f 11/41/6 20/37/6 29/36/6 30/42/6
f 13/39/6 11/41/6 30/42/6 23/40/6
f 23/40/6 30/42/6 26/43/6 24/44/6
f 5/45/4 18/46/4 27/47/4 28/48/4
f 18/46/4 22/49/4 29/50/4 27/47/4
f 22/49/4 25/51/4 30/15/4 29/50/4
f 25/51/4 12/52/4 31/16/4 30/15/4
f 34/53/5 33/54/5 32/55/5 36/56/5
f 37/57/5 35/58/5 33/54/5 34/53/5
f 22/59/6 34/60/6 36/61/6 18/62/6
f 25/63/6 37/64/6 34/60/6 22/59/6
f 12/52/4 25/51/4 22/49/4 18/46/4 5/45/4
f 4/1/7 6/5/7 57/65/7 55/66/7 39/67/7
f 12/6/2 56/68/2 63/69/2 35/7/2
f 48/70/3 58/71/3 28/12/3 14/11/3
f 49/68/3 5/6/3 32/7/3 62/69/3
f 57/72/4 6/17/4 31/16/4 60/73/4
f 39/74/5 55/75/5 54/76/5 43/77/5
f 38/78/5 48/79/5 14/24/5 7/23/5
f 41/80/5 52/81/5 48/79/5 38/78/5
f 43/77/5 54/76/5 52/81/5 41/80/5
f 40/29/8 58/82/8 48/31/8 46/30/8
f 46/30/8 48/31/8 52/34/8 47/33/8
f 42/35/8 59/83/8 58/82/8 40/29/8
f 47/33/8 52/34/8 59/83/8 42/35/8
f 51/37/8 59/83/8 52/34/8 50/38/8
f 50/38/8 52/34/8 54/40/8 45/39/8
f 44/41/8 60/84/8 59/83/8 51/37/8
f 45/39/8 54/40/8 60/84/8 44/41/8
f 54/40/8 55/44/8 57/85/8 60/84/8
f 5/45/4 28/48/4 58/86/4 49/87/4
f 49/87/4 58/86/4 59/88/4 53/89/4
f 53/89/4 59/88/4 60/73/4 56/90/4
f 56/90/4 60/73/4 31/16/4 12/52/4
f 61/91/5 62/92/5 32/55/5 33/54/5
f 63/93/5 61/91/5 33/54/5 35/58/5
f 53/59/8 49/62/8 62/61/8 61/60/8
f 56/63/8 53/59/8 61/60/8 63/64/8
f 12/52/4 5/45/4 49/87/4 53/89/4 56/90/4
o Door
v -0.366107 1.971743 0.400000
v -0.366107 0.000307 0.400000
v -0.366107 0.542036 0.400000
v -0.313185 1.830132 0.400000
v -0.313185 0.585647 0.400000
v 0.366107 1.971743 0.400000
v 0.366107 0.000307 0.400000
v 0.366107 0.542036 0.400000
v 0.313185 1.830132 0.400000
v 0.313185 0.585647 0.400000
vn -0.0000 -0.0000 1.0000
vt 0.042814 0.034399
vt 0.266323 0.034399
vt 0.266323 0.199763
vt 0.042814 0.199763
vt 0.250168 0.592956
vt 0.266323 0.636183
vt 0.042814 0.636183
vt 0.058968 0.592956
vt 0.058968 0.213075
vt 0.250168 0.213075
s 0
usemtl Door
f 66/94/9 71/95/9 72/96/9 67/97/9
f 73/98/9 70/99/9 65/100/9 68/101/9
f 69/102/9 68/101/9 65/100/9 67/97/9
f 67/97/9 72/96/9 74/103/9 69/102/9
f 74/103/9 72/96/9 70/99/9 73/98/9
o Glass_Side
v -0.400000 1.830132 -0.314770
v -0.400000 1.135169 -0.314770
v -0.400000 0.585647 -0.314770
v -0.400000 0.585647 0.314770
v -0.400000 1.830132 0.314770
v -0.400000 1.135169 0.314770
v -0.400000 1.044078 0.314770
v -0.400000 1.044078 -0.314770
v 0.400000 1.830132 -0.314770
v 0.400000 1.135169 -0.314770
v 0.400000 0.585647 -0.314770
v 0.400000 0.585647 0.314770
v 0.400000 1.830132 0.314770
v 0.400000 1.135169 0.314770
v 0.400000 1.044078 0.314770
v 0.400000 1.044078 -0.314770
vn -1.0000 -0.0000 -0.0000
vn 1.0000 -0.0000 -0.0000
vt 0.982324 0.443607
vt 0.982324 0.973044
vt 0.517831 0.973044
vt 0.517831 0.443607
vt 0.982324 0.024969
vt 0.982324 0.374211
vt 0.517831 0.374211
vt 0.517831 0.024969
s 0
usemtl Glass
f 80/104/10 79/105/10 75/106/10 76/107/10
f 78/108/10 81/109/10 82/110/10 77/111/10
f 88/104/11 84/107/11 83/106/11 87/105/11
f 86/108/11 85/111/11 90/110/11 89/109/11
o Glass
v -0.313184 1.830132 0.400000
v -0.313184 0.585647 0.400000
v 0.313184 1.830132 0.400000
v 0.313184 0.585647 0.400000
vn -0.0000 -0.0000 1.0000
vt 0.977417 0.966033
vt 0.510905 0.966033
vt 0.510905 0.024167
vt 0.977417 0.024167
s 0
usemtl Glass
f 93/112/12 91/113/12 92/114/12 94/115/12
